<?xml version="1.0" encoding="UTF-8" standalone="no"?>
<!-- Created with Inkscape (http://www.inkscape.org/) -->

<svg
   id="svg2"
   version="1.1"
   inkscape:version="1.1.2 (0a00cf5339, 2022-02-04)"
   width="200"
   height="200"
   sodipodi:docname="Japanese-fan-seamless-pattern.svg"
   xmlns:inkscape="http://www.inkscape.org/namespaces/inkscape"
   xmlns:sodipodi="http://sodipodi.sourceforge.net/DTD/sodipodi-0.dtd"
   xmlns="http://www.w3.org/2000/svg"
   xmlns:svg="http://www.w3.org/2000/svg"
   xmlns:rdf="http://www.w3.org/1999/02/22-rdf-syntax-ns#"
   xmlns:cc="http://creativecommons.org/ns#"
   xmlns:dc="http://purl.org/dc/elements/1.1/">
  <metadata
     id="metadata8">
    <rdf:RDF>
      <cc:Work
         rdf:about="">
        <dc:format>image/svg+xml</dc:format>
        <dc:type
           rdf:resource="http://purl.org/dc/dcmitype/StillImage" />
        <dc:title />
      </cc:Work>
    </rdf:RDF>
  </metadata>
  <defs
     id="defs6" />
  <sodipodi:namedview
     pagecolor="#ffffff"
     bordercolor="#666666"
     borderopacity="1"
     objecttolerance="10"
     gridtolerance="10"
     guidetolerance="10"
     inkscape:pageopacity="0"
     inkscape:pageshadow="2"
     inkscape:window-width="1298"
     inkscape:window-height="978"
     id="namedview4"
     showgrid="false"
     inkscape:zoom="0.39630093"
     inkscape:cx="368.40691"
     inkscape:cy="177.89512"
     inkscape:window-x="380"
     inkscape:window-y="47"
     inkscape:window-maximized="0"
     inkscape:current-layer="svg2"
     inkscape:pagecheckerboard="0" />
  <g
     id="g2987"
     transform="matrix(0.33332804,0,0,0.33333333,0.00201801,0)">
    <path
       style="fill:#fdf0f0"
       d="M 0,300 V 0 H 300 600 V 300 600 H 300 0 Z"
       id="path2993"
       inkscape:connector-curvature="0" />
    <path
       style="fill:#582800;fill-opacity:0.317757"
       d="M 0,560.0215 V 520.043 l 7.25,2.56013 c 11.885598,4.19705 31.115068,13.85213 40.800664,20.48592 18.716185,12.81896 39.816108,35.97684 49.83277,54.69314 L 99.070368,600 H 49.535184 0 Z M 492.79692,598.25 C 489.00523,593.86455 457,547.75756 457,546.68068 c 0,-1.45693 13.99237,-10.40195 24.63411,-15.74805 34.49713,-17.33036 75.76222,-21.57849 114.61589,-11.79938 l 3.75,0.94384 V 560.03854 600 h -52.84501 c -49.08552,0 -52.95266,-0.1245 -54.35807,-1.75 z M 264.98767,390.97697 c -1.07856,-2.01532 -1.25691,-2.04329 -2.99559,-0.4698 -1.14208,1.03357 -2.62108,1.42797 -3.86926,1.03181 -2.176,-0.69063 -3.65874,-3.86283 -2.60358,-5.57011 0.4191,-0.67811 -0.21442,-0.83249 -1.7917,-0.43662 -1.59502,0.40032 -3.00928,0.0432 -4.08378,-1.03135 -2.07463,-2.07463 -2.07207,-3.37015 0.0112,-5.67216 1.55175,-1.71466 1.5282,-1.82874 -0.37756,-1.82874 -2.80418,0 -4.61998,-2.49904 -3.90004,-5.36752 0.67163,-2.67597 3.06107,-3.59855 9.37261,-3.61883 2.3375,-0.008 4.25,-0.19873 4.25,-0.42495 0,-0.22621 -20.25,-29.0213 -45,-63.98909 -24.75,-34.96778 -45,-63.81678 -45,-64.10889 0,-1.20402 16.25076,-11.04683 26.5,-16.0506 21.68786,-10.58819 40.1209,-15.19214 64.5,-16.1099 30.70927,-1.15607 54.69339,4.02614 82.10179,17.7396 19.55216,9.78269 42.31569,28.63148 55.46167,45.9237 12.11707,15.93878 21.90963,35.73333 27.85884,56.31344 3.0678,10.61244 6.22853,31.44221 4.96309,32.70765 -0.49073,0.49073 -33.0657,3.83766 -72.38881,7.43762 -39.32312,3.59996 -74.06435,6.82681 -77.20273,7.17078 l -5.70616,0.6254 2.33067,3.1258 c 4.01002,5.37805 4.76666,7.41155 3.58164,9.62579 -1.14913,2.14717 -5.42362,2.74162 -6.55467,0.91154 -0.40939,-0.6624 -1.12656,-0.17312 -1.83219,1.25 -1.5879,3.20249 -6.09028,3.68395 -7.62547,0.81543 z m 48.28021,-28.36695 c 13.62233,-1.27184 25.08325,-2.62781 25.4687,-3.01327 C 340.37303,357.9603 331.61993,333 329.4096,333 c -0.63348,0 -25.36559,17.17887 -39.85968,27.68645 -7.12079,5.16226 -9.18096,4.99517 23.71796,1.92357 z m -11.82229,-21.0661 c 11.52008,-8.27416 21.4184,-15.36397 21.99627,-15.75514 C 325.44156,324.43515 306.12358,307 302.62407,307 c -0.63575,0 -4.92861,8.2125 -9.53968,18.25 -4.61108,10.0375 -9.89245,21.5397 -11.73638,25.56043 -1.84393,4.02074 -2.78907,6.96551 -2.1003,6.54392 0.68876,-0.42158 10.67781,-7.53628 22.19788,-15.81043 z m -42.37766,-12.21687 c -2.93745,-33.15039 -2.34382,-30.69846 -7.24267,-29.9151 -4.70809,0.75285 -18.48028,5.9849 -21.18127,8.04675 -1.74414,1.33142 -0.90031,2.77143 14,23.89118 8.72081,12.36091 16.00884,22.32359 16.19563,22.13929 0.18679,-0.18429 -0.61047,-11.05725 -1.77169,-24.16212 z m 34.24384,-25.7408 c 0.32394,-1.57253 -11.43842,-4.66247 -20.14621,-5.29236 l -8.33444,-0.60287 0.59277,4.40449 c 0.58037,4.3124 4.57092,48.94354 4.58145,51.23982 0.005,1.09333 22.9005,-47.77859 23.30643,-49.74908 z M 553.24298,98.842976 C 552.55934,98.159339 552,96.914872 552,96.077494 c 0,-1.063563 -0.46925,-0.852556 -1.5567,0.7 C 547.7771,100.58402 543,99.054056 543,94.39362 c 0,-1.716005 -0.44569,-2.08983 -2.00533,-1.681976 -3.97443,1.039337 -6.78401,-4.5223 -3.79467,-7.511644 0.93333,-0.933333 0.71893,-1.2 -0.96482,-1.2 -1.19065,0 -2.62903,-0.867401 -3.19641,-1.927558 C 530.81074,77.909328 534.56783,75 542.17209,75 c 2.82521,0 3.89733,-0.376716 3.56165,-1.251477 -0.26413,-0.688312 -5.61045,-8.450812 -11.88072,-17.25 -6.27027,-8.799188 -14.31481,-20.165785 -17.87675,-25.259104 -3.56195,-5.09332 -9.93997,-14.09332 -14.17337,-20 L 494.10579,0.5 546.71064,0.24107889 c 28.93267,-0.14240662 52.77586,-0.0879116 52.98487,0.12110006 0.20901,0.20901165 0.25053,4.70152705 0.0923,9.98336705 l -0.28777,9.603347 -4.79948,-3.12497 c -2.78057,-1.81045 -5.15398,-2.746164 -5.64224,-2.224447 -1.11783,1.194432 -23.29358,49.515143 -22.87974,49.854681 0.1768,0.145058 7.74646,-5.072054 16.82146,-11.593582 9.075,-6.521529 16.6125,-11.858056 16.75,-11.85895 0.1375,-8.94e-4 0.25,2.37551 0.25,5.280897 v 5.282522 l -14.23383,9.956897 c -9.51798,6.658051 -13.63869,10.07151 -12.43753,10.302833 0.98796,0.190264 6.28583,-0.142475 11.77305,-0.73942 C 600.62493,69.396607 600,69.260485 600,74.330508 v 4.330508 l -18.22016,1.722982 c -10.02108,0.947641 -18.37923,1.882056 -18.57365,2.076478 -0.19442,0.194422 1.02965,2.262869 2.72016,4.596548 3.29474,4.548265 3.78424,6.832386 1.87365,8.742976 -1.7758,1.775798 -5.47449,1.455444 -6.3501,-0.55 -0.62024,-1.420542 -0.8766,-1.185215 -1.36174,1.25 -0.44946,2.256099 -1.21814,3.072648 -3.09993,3.292976 -1.37625,0.161137 -3.06162,-0.266363 -3.74525,-0.95 z M 546.20259,34 C 544.8372,18.875 543.56082,6.3152714 543.36619,6.0894919 542.54331,5.1349158 530.91941,8.4905438 523.75,11.752359 c -4.2625,1.93928 -7.75,3.648687 -7.75,3.798682 0,0.149995 4.6125,6.75701 10.25,14.682255 5.6375,7.925245 12.94303,18.284374 16.2345,23.020286 3.29148,4.735911 6.03313,8.528774 6.09256,8.428583 C 548.63649,61.581974 547.56797,49.125 546.20259,34 Z m 23.72542,0.548949 C 576.0176,21.375871 581,10.293079 581,9.9205224 581,8.7474878 567.81922,5.8359259 559.99435,5.2804881 l -7.50566,-0.5327783 2.47188,27.6099172 c 1.35954,15.185455 2.79219,27.27972 3.18366,26.876145 0.39148,-0.403574 5.69418,-11.511745 11.78378,-24.684823 z M 0,74.504517 C 0,69.349864 -0.12004501,69.407203 12.5,68.533978 26.685445,67.552437 27.03057,67.431174 26.317268,63.679148 25.31722,58.418809 19.923855,44.127533 18.078826,41.849019 L 16.354661,39.719765 9.4273304,44.699491 C -0.64338284,51.938845 -4.7108433e-4,51.863153 0.00335651,45.809017 L 0.00671301,40.5 6.0922427,36.330992 12.177772,32.161984 6.0888862,26.166901 0,20.171817 V 10.085908 0 h 49.487428 49.487429 l 3.362873,6.75 c 5.87273,11.787827 11.05907,27.396926 13.61983,40.991022 C 117.42562,55.534408 118.36398,68 117.48257,68 115.87922,68 6.3501797,77.995075 3.25,78.424296 0.01051906,78.872803 0,78.860116 0,74.504517 Z"
       id="path2991"
       inkscape:connector-curvature="0" />
  </g>
</svg>
